<svg xmlns="http://www.w3.org/2000/svg" version="1.0" preserveAspectRatio="xMidYMid meet" viewBox="156.89 89.97 710.91 1381.6">

<g transform="translate(0.000000,1536.000000) scale(0.100000,-0.100000)" fill="#000000" stroke="none">
<path d="M4922 14440 c-212 -56 -388 -211 -466 -412 -52 -133 -67 -233 -67 -459 0 -202 1 -220 43 -419 37 -180 57 -232 121 -326 79 -115 87 -132 87 -199 -1 -133 -47 -257 -121 -319 -66 -56 -401 -185 -689 -266 -247 -69 -348 -118 -443 -213 -169 -170 -237 -355 -302 -822 -14 -104 -48 -302 -75 -440 -27 -137 -61 -322 -75 -410 -38 -240 -65 -326 -165 -535 -140 -293 -148 -317 -240 -777 -80 -402 -185 -833 -213 -875 -15 -22 -69 -59 -172 -117 l-150 -86 -203 -203 c-116 -115 -209 -217 -216 -235 -28 -69 30 -137 116 -137 32 0 199 49 239 71 10 5 19 8 19 7 0 -14 -51 -171 -114 -351 -76 -217 -86 -268 -63 -297 42 -54 104 -64 159 -26 l35 24 7 -59 c10 -99 41 -139 106 -139 41 0 83 25 104 61 22 37 31 36 46 -1 27 -66 102 -90 152 -50 14 11 37 51 53 93 l29 75 32 -34 c55 -59 132 -34 167 53 18 47 62 244 123 558 46 234 47 244 46 413 l-2 174 74 141 c40 78 150 291 245 474 94 182 198 389 230 460 79 175 176 443 190 528 19 114 86 365 156 590 36 116 68 227 71 248 4 20 10 37 13 37 4 0 12 -37 19 -82 6 -46 25 -186 43 -313 30 -224 31 -237 26 -500 -7 -331 -15 -403 -146 -1285 -102 -681 -122 -1615 -51 -2405 40 -450 43 -518 31 -694 -13 -172 -48 -471 -75 -626 -41 -239 -51 -376 -50 -675 0 -214 5 -331 17 -425 10 -71 28 -231 42 -355 14 -124 37 -317 50 -430 55 -454 56 -633 5 -776 -35 -101 -209 -343 -381 -533 -132 -144 -146 -164 -160 -225 -15 -69 1 -130 47 -173 100 -94 470 -129 724 -68 92 22 140 52 177 110 52 82 92 123 157 162 83 49 103 69 122 120 16 40 16 58 5 184 -7 77 -12 204 -10 282 2 78 -3 216 -10 307 -13 159 -12 176 13 440 33 329 51 447 116 730 89 391 91 422 79 1150 l-4 265 47 140 c55 166 71 244 98 470 12 94 57 348 100 566 100 500 181 995 220 1359 7 58 15 120 19 139 13 67 69 67 83 0 4 -19 19 -133 34 -254 54 -459 115 -845 209 -1310 35 -176 73 -390 85 -475 29 -221 56 -347 104 -490 l41 -125 0 -495 c0 -557 -3 -526 85 -910 70 -307 85 -405 114 -730 26 -289 29 -379 16 -495 -6 -60 -11 -171 -10 -245 0 -74 -4 -206 -11 -292 -18 -223 -6 -254 126 -325 69 -38 88 -58 158 -168 39 -61 100 -97 207 -122 104 -25 352 -25 470 0 222 47 280 90 280 209 0 82 -35 143 -143 256 -136 140 -330 392 -377 487 -89 181 -84 315 55 1478 34 282 49 533 41 702 -5 121 -48 500 -61 545 -14 47 -58 425 -70 606 -12 183 -12 233 0 375 73 842 89 1390 55 1884 -37 527 -62 748 -130 1155 -11 63 -31 205 -44 315 -69 553 -73 765 -21 1175 51 402 56 429 69 351 3 -22 29 -114 56 -203 67 -217 135 -471 164 -616 49 -248 209 -605 554 -1242 52 -96 118 -217 145 -269 l50 -94 2 -206 c2 -226 3 -232 112 -736 48 -224 58 -252 99 -284 40 -32 81 -27 119 13 l32 34 28 -75 c31 -79 61 -113 102 -113 36 0 79 29 100 67 18 34 33 43 33 19 0 -8 16 -28 35 -45 41 -35 79 -40 131 -15 29 14 36 25 54 84 11 37 20 73 20 79 0 8 10 4 26 -8 62 -49 175 2 174 79 0 14 -43 151 -95 305 -51 154 -92 281 -90 283 2 2 54 -13 115 -33 85 -28 123 -36 156 -32 80 9 122 55 110 121 -5 28 -42 71 -189 221 -216 222 -260 258 -426 344 -116 61 -128 70 -148 111 -24 49 -153 580 -203 837 -87 445 -107 515 -235 783 -122 256 -136 304 -174 569 -12 78 -44 255 -71 394 -28 139 -61 338 -75 442 -14 105 -33 226 -41 270 -49 246 -165 472 -298 578 -77 61 -234 132 -381 171 -202 54 -523 170 -652 234 -128 65 -183 165 -183 330 0 83 14 123 80 223 75 114 93 163 137 378 35 168 36 185 37 386 1 167 -3 227 -17 293 -39 180 -94 288 -199 394 -79 78 -187 137 -312 168 -107 27 -300 27 -404 0z m368 -76 c227 -53 388 -217 449 -457 47 -182 50 -367 10 -642 -35 -245 -95 -372 -244 -520 -124 -124 -241 -175 -405 -175 -176 0 -299 72 -452 264 -121 152 -172 365 -173 721 0 197 2 217 28 318 68 272 209 424 449 487 91 24 247 26 338 4z m-383 -1852 c53 -24 68 -27 173 -26 77 0 137 6 180 17 72 20 214 83 231 104 20 23 29 14 29 -26 0 -65 27 -186 53 -238 31 -60 77 -103 144 -137 102 -51 304 -126 583 -216 157 -51 317 -109 355 -129 90 -46 199 -153 249 -244 84 -151 130 -323 171 -643 14 -109 45 -298 70 -419 24 -121 58 -308 76 -415 39 -245 64 -330 139 -480 128 -254 181 -423 255 -809 57 -290 149 -674 205 -844 46 -142 42 -137 160 -186 41 -17 116 -61 166 -99 110 -81 434 -391 434 -415 0 -46 -100 -22 -287 69 -62 29 -125 54 -140 54 -16 0 -84 14 -152 30 -128 31 -161 32 -161 1 0 -28 96 -63 247 -92 40 -7 69 -19 81 -33 10 -11 33 -71 50 -133 17 -61 63 -196 102 -300 73 -193 81 -238 45 -238 -15 0 -45 38 -113 140 -51 77 -106 166 -122 197 -16 31 -34 59 -40 63 -12 7 -50 -12 -50 -26 0 -6 31 -97 69 -203 76 -210 91 -279 68 -310 -14 -19 -16 -19 -40 -3 -15 10 -37 45 -57 94 -17 43 -57 139 -87 213 -31 74 -61 150 -69 168 -10 24 -19 32 -39 32 -32 0 -41 -22 -27 -63 6 -18 31 -90 56 -162 29 -81 46 -147 46 -175 0 -47 -32 -130 -49 -130 -20 0 -69 165 -133 444 -15 68 -49 103 -88 91 -26 -8 -25 -28 5 -190 19 -104 16 -198 -7 -221 -15 -15 -17 -15 -26 3 -6 11 -33 127 -61 259 -28 131 -64 304 -82 384 -30 135 -32 159 -33 350 l-2 205 -115 215 c-190 352 -491 957 -533 1070 -21 58 -58 182 -81 275 -24 94 -70 260 -103 370 -78 257 -171 637 -174 712 -2 32 13 179 32 326 30 234 33 269 20 277 -23 14 -38 12 -49 -7 -5 -10 -28 -139 -50 -288 -23 -148 -59 -373 -80 -500 -102 -598 -117 -815 -86 -1182 24 -272 41 -407 90 -705 111 -681 145 -1089 145 -1768 0 -384 -11 -616 -47 -1030 -41 -478 -34 -709 38 -1160 48 -309 60 -425 66 -670 4 -176 1 -282 -11 -425 -21 -244 -60 -591 -91 -820 -39 -287 -49 -399 -48 -570 0 -236 22 -325 115 -464 74 -111 286 -369 405 -492 138 -143 47 -226 -285 -260 -121 -13 -217 -5 -319 26 -62 18 -98 47 -157 124 -28 35 -80 83 -139 124 -128 91 -145 131 -115 268 7 31 12 144 12 269 1 118 5 267 10 330 9 118 1 276 -30 565 -20 191 -45 335 -104 592 -84 375 -85 381 -85 933 l0 485 -28 87 c-34 108 -58 225 -103 498 -19 118 -62 361 -94 540 -106 586 -132 752 -200 1294 -26 211 -45 327 -55 343 -14 22 -22 23 -115 23 -92 0 -101 -2 -114 -23 -10 -14 -27 -114 -46 -262 -67 -525 -136 -960 -234 -1475 -25 -129 -56 -314 -70 -410 -36 -242 -62 -363 -104 -493 -34 -106 -36 -119 -36 -247 -1 -74 3 -268 8 -430 10 -345 -1 -497 -59 -773 -19 -92 -50 -240 -69 -330 -55 -263 -103 -741 -90 -897 5 -58 9 -211 10 -340 0 -140 5 -257 12 -289 16 -72 15 -126 -2 -160 -8 -15 -57 -58 -107 -94 -66 -46 -107 -85 -143 -134 -30 -40 -68 -77 -92 -90 -137 -76 -511 -71 -666 8 -44 22 -58 45 -58 91 0 41 14 62 104 158 238 252 413 500 449 634 33 121 34 365 3 626 -165 1385 -166 1455 -42 2260 17 112 46 474 46 581 0 41 -13 225 -30 409 -50 564 -67 1045 -51 1430 22 540 64 951 146 1425 123 714 131 1078 40 1660 -114 723 -160 991 -172 1001 -18 15 -51 6 -58 -16 -3 -9 13 -133 35 -276 22 -142 40 -272 40 -289 0 -33 -84 -396 -120 -515 -12 -41 -44 -147 -72 -235 -27 -88 -65 -225 -84 -305 -50 -208 -107 -374 -186 -545 -72 -157 -305 -615 -403 -795 -31 -57 -77 -145 -103 -195 l-45 -90 2 -172 c2 -157 -1 -184 -28 -315 -85 -405 -143 -663 -154 -685 -12 -23 -14 -23 -28 -7 -23 28 -23 147 0 247 34 145 25 186 -35 158 -33 -15 -46 -48 -93 -249 -43 -178 -76 -282 -91 -282 -5 0 -18 15 -29 34 -39 63 -20 183 64 395 28 72 25 101 -9 101 -27 0 -37 -11 -58 -65 -84 -215 -172 -422 -185 -437 -32 -35 -63 -10 -63 50 0 44 44 189 95 313 25 59 45 121 45 138 0 49 -54 52 -67 3 -6 -25 -160 -265 -215 -334 -34 -44 -58 -49 -58 -14 0 13 40 136 89 273 48 136 96 273 104 303 9 31 27 65 39 76 14 12 74 34 148 54 137 36 172 52 164 75 -9 22 -63 19 -182 -10 -57 -14 -114 -25 -127 -25 -13 0 -54 -17 -92 -39 -69 -39 -166 -80 -238 -101 -45 -13 -95 -1 -95 23 0 8 42 52 93 98 50 45 130 122 177 169 94 95 222 185 347 245 72 33 86 44 102 79 45 92 122 392 215 831 122 574 132 608 261 870 101 204 124 279 170 563 20 119 51 289 70 377 44 203 62 312 75 450 25 260 71 438 156 607 46 91 162 209 250 256 33 17 222 86 420 152 486 164 597 219 659 325 24 41 33 76 56 222 l11 71 63 -44 c35 -24 89 -57 122 -72z"/>
</g>
</svg>